<svg width="32" height="32" viewBox="0 0 32 32" fill="none" xmlns="http://www.w3.org/2000/svg">
<g clip-path="url(#clip0_132_1059)">
<path d="M31.9402 15.2658L25.8021 5.19929C25.752 5.11724 25.6747 5.05542 25.5837 5.02465C25.4927 4.99388 25.3937 4.99614 25.3041 5.03102L24.5704 5.3169L24.4674 5.14789C24.3937 5.02698 24.2798 4.93587 24.1456 4.89054C24.0115 4.84522 23.8656 4.84856 23.7337 4.9L16 7.91323L8.26631 4.90008C8.13438 4.84863 7.98854 4.84527 7.85438 4.8906C7.72022 4.93593 7.6063 5.02705 7.53261 5.14798L7.42957 5.31698L6.69586 5.03111C6.60632 4.99622 6.50735 4.99397 6.41631 5.02473C6.32527 5.0555 6.24796 5.11732 6.19794 5.19937L0.0598292 15.2659C0.0287721 15.3167 0.00921044 15.3738 0.00251347 15.433C-0.0041835 15.4923 0.0021461 15.5522 0.0210592 15.6088C0.0399723 15.6653 0.0710118 15.717 0.112005 15.7603C0.152998 15.8036 0.202954 15.8374 0.258377 15.8593L9.01263 19.3289L7.87168 26.6692C7.86263 26.7276 7.86632 26.7872 7.88248 26.844C7.89865 26.9008 7.92691 26.9534 7.96532 26.9982C8.00373 27.0431 8.05139 27.0791 8.10503 27.1038C8.15866 27.1285 8.21701 27.1413 8.27605 27.1413H9.29793C9.38064 27.1413 9.46142 27.1162 9.52962 27.0694L16 22.625L22.4704 27.0694C22.5386 27.1163 22.6194 27.1413 22.7021 27.1413H23.724C23.783 27.1413 23.8414 27.1286 23.8951 27.1039C23.9487 27.0792 23.9964 27.0432 24.0348 26.9984C24.0732 26.9535 24.1015 26.9009 24.1176 26.844C24.1338 26.7872 24.1374 26.7276 24.1283 26.6692L22.9874 19.3289L31.7416 15.8593C31.7971 15.8374 31.8471 15.8036 31.8881 15.7603C31.9291 15.717 31.9601 15.6653 31.979 15.6087C31.998 15.5522 32.0043 15.4922 31.9976 15.433C31.9908 15.3737 31.9713 15.3167 31.9402 15.2658ZM16.3274 18.351V13.1132C16.3274 13.0264 16.2929 12.9431 16.2315 12.8817C16.1701 12.8203 16.0868 12.7858 16 12.7858C15.9132 12.7858 15.8299 12.8203 15.7685 12.8817C15.7071 12.9431 15.6726 13.0264 15.6726 13.1132V18.351L3.77052 13.6339L8.29922 6.207L15.7811 9.12211C15.9219 9.17695 16.0781 9.17695 16.2189 9.12211L23.7008 6.207L28.2294 13.6339L16.3274 18.351Z" fill="white"/>
<path d="M23.2659 8.75122C23.2503 8.71116 23.227 8.67456 23.1972 8.64352C23.1675 8.61248 23.1319 8.58761 23.0925 8.57033C23.0532 8.55305 23.0108 8.54369 22.9678 8.5428C22.9248 8.5419 22.8821 8.54948 22.842 8.56511L18.0134 10.4475C17.9733 10.4631 17.9367 10.4864 17.9057 10.5162C17.8746 10.5459 17.8498 10.5815 17.8325 10.6209C17.8152 10.6603 17.8059 10.7026 17.805 10.7456C17.8041 10.7886 17.8116 10.8313 17.8272 10.8714C17.8429 10.9115 17.8662 10.948 17.896 10.9791C17.9257 11.0101 17.9613 11.035 18.0007 11.0523C18.04 11.0695 18.0824 11.0789 18.1254 11.0798C18.1684 11.0807 18.2111 11.0731 18.2512 11.0575L23.0798 9.17516C23.1607 9.14361 23.2258 9.08122 23.2607 9.00172C23.2956 8.92222 23.2975 8.83212 23.2659 8.75122Z" fill="white"/>
<path d="M18.8096 12.2467C18.7695 12.2623 18.7329 12.2856 18.7019 12.3154C18.6709 12.3451 18.646 12.3807 18.6287 12.4201C18.6114 12.4595 18.6021 12.5018 18.6012 12.5448C18.6003 12.5878 18.6078 12.6305 18.6235 12.6706C18.6391 12.7107 18.6624 12.7472 18.6922 12.7783C18.7219 12.8093 18.7575 12.8342 18.7969 12.8515C18.8363 12.8687 18.8786 12.8781 18.9216 12.879C18.9646 12.8799 19.0073 12.8723 19.0474 12.8567L23.8761 10.9744C23.957 10.9428 24.022 10.8804 24.0569 10.8009C24.0918 10.7214 24.0937 10.6313 24.0622 10.5504C24.0306 10.4695 23.9682 10.4045 23.8887 10.3696C23.8092 10.3347 23.7191 10.3328 23.6382 10.3643L18.8096 12.2467Z" fill="white"/>
<path d="M19.4834 14.6361C19.5149 14.717 19.5773 14.782 19.6568 14.8169C19.7363 14.8518 19.8264 14.8537 19.9073 14.8222L24.736 12.9399C24.776 12.9242 24.8126 12.9009 24.8437 12.8711C24.8747 12.8414 24.8996 12.8058 24.9169 12.7664C24.9341 12.7271 24.9435 12.6847 24.9444 12.6417C24.9453 12.5987 24.9377 12.5559 24.9221 12.5159C24.9065 12.4758 24.8831 12.4392 24.8534 12.4082C24.8236 12.3772 24.788 12.3523 24.7487 12.335C24.7093 12.3177 24.6669 12.3083 24.6239 12.3074C24.5809 12.3065 24.5382 12.3141 24.4981 12.3297L19.6695 14.2121C19.5886 14.2437 19.5235 14.3061 19.4886 14.3856C19.4537 14.4651 19.4519 14.5552 19.4834 14.6361Z" fill="white"/>
<path d="M13.9867 10.4475L9.15803 8.56512C9.07756 8.53556 8.98871 8.53875 8.91056 8.57398C8.83241 8.60921 8.7712 8.67368 8.74006 8.75355C8.70893 8.83342 8.71035 8.92231 8.74403 9.00114C8.77771 9.07997 8.84096 9.14245 8.92019 9.17516L13.7488 11.0575C13.8297 11.089 13.9198 11.0871 13.9993 11.0522C14.0788 11.0173 14.1412 10.9523 14.1728 10.8714C14.1884 10.8313 14.196 10.7886 14.1951 10.7456C14.1942 10.7026 14.1848 10.6603 14.1675 10.6209C14.1502 10.5815 14.1254 10.5459 14.0943 10.5162C14.0633 10.4864 14.0267 10.4631 13.9867 10.4475Z" fill="white"/>
<path d="M13.1905 12.2467L8.36188 10.3643C8.28142 10.3348 8.19257 10.3379 8.11442 10.3732C8.03627 10.4084 7.97506 10.4729 7.94392 10.5527C7.91278 10.6326 7.91421 10.7215 7.94789 10.8003C7.98157 10.8792 8.04482 10.9416 8.12405 10.9744L12.9527 12.8567C13.0336 12.8882 13.1237 12.8863 13.2032 12.8514C13.2827 12.8165 13.3451 12.7515 13.3766 12.6706C13.4082 12.5897 13.4063 12.4996 13.3714 12.4201C13.3365 12.3406 13.2714 12.2782 13.1905 12.2467Z" fill="white"/>
<path d="M12.3305 14.2122L7.50188 12.3298C7.42153 12.3008 7.33305 12.3044 7.25529 12.3397C7.17753 12.3751 7.11665 12.4394 7.08563 12.519C7.05461 12.5985 7.0559 12.6871 7.08923 12.7657C7.12256 12.8444 7.18529 12.9069 7.26405 12.9399L12.0927 14.8223C12.173 14.8513 12.2615 14.8477 12.3393 14.8124C12.417 14.777 12.4779 14.7127 12.5089 14.6331C12.54 14.5536 12.5387 14.465 12.5053 14.3864C12.472 14.3077 12.4093 14.2452 12.3305 14.2122Z" fill="white"/>
</g>
<defs>
<clipPath id="clip0_132_1059">
<rect width="32" height="32" fill="white"/>
</clipPath>
</defs>
</svg>
