<svg width="20" height="24" viewBox="0 0 20 24" fill="none" xmlns="http://www.w3.org/2000/svg">
<path d="M13.8075 4.11008H4.96323C4.85498 4.99404 4.30836 5.75568 3.49991 6.14085V19.908C4.04823 20.1691 4.47548 20.6037 4.72783 21.132C4.84947 21.3863 4.92894 21.6587 4.96315 21.9386H13.8075C13.8418 21.6587 13.9213 21.3863 14.0429 21.132C14.2953 20.6037 14.7226 20.1691 15.2708 19.908V6.14077C14.4625 5.75568 13.9159 4.99404 13.8075 4.11008ZM8.68191 5.02188C8.74559 4.97852 8.81659 4.94703 8.89148 4.92895C8.95214 4.85997 9.01816 4.80383 9.08901 4.76152C9.23241 4.58795 9.3853 4.48841 9.3853 4.48841C9.3853 4.48841 9.53834 4.58787 9.68166 4.76152C9.75258 4.80383 9.81876 4.86005 9.87934 4.92895C9.95415 4.9473 10.0248 4.97787 10.089 5.02188C10.3395 5.19367 10.4344 5.52775 10.3728 5.89325C10.4109 5.94154 10.4318 5.99341 10.4318 6.04753C10.4318 6.10174 10.4109 6.15337 10.3728 6.20167C10.4344 6.56716 10.3394 6.90109 10.089 7.07295C10.0254 7.11658 9.95435 7.14808 9.87934 7.16588C9.81876 7.23478 9.75258 7.29124 9.68166 7.33331C9.53834 7.50704 9.38553 7.6065 9.38553 7.6065C9.38553 7.6065 9.23241 7.50712 9.08901 7.33331C9.01816 7.29124 8.95214 7.23471 8.89148 7.16588C8.81651 7.14805 8.74546 7.11655 8.68191 7.07295C8.43142 6.90109 8.33639 6.56716 8.39806 6.20167C8.35996 6.15337 8.33919 6.10174 8.33919 6.04753C8.33919 5.99341 8.35996 5.94154 8.39806 5.89325C8.33639 5.52775 8.43142 5.19367 8.68191 5.02188ZM7.1402 9.75128C7.3455 9.61045 7.57087 9.51293 7.80945 9.45531C8.00231 9.23523 8.21368 9.05474 8.43889 8.92067C8.89763 8.36581 9.3853 8.04884 9.3853 8.04884C9.3853 8.04884 9.87304 8.36581 10.3318 8.92051C10.557 9.05466 10.7684 9.23523 10.9614 9.45531C11.2001 9.51285 11.4254 9.61045 11.6306 9.75128C12.4299 10.2995 12.733 11.3657 12.5364 12.5322C12.658 12.6861 12.7243 12.8516 12.7243 13.0244C12.7243 13.197 12.6579 13.3626 12.5364 13.5166C12.733 14.683 12.43 15.7492 11.6306 16.2974C11.4253 16.4382 11.2001 16.5358 10.9614 16.5934C10.7685 16.8135 10.5571 16.994 10.3318 17.1281C9.87312 17.6828 9.38553 17.9997 9.38553 17.9997C9.38553 17.9997 8.89771 17.6829 8.43889 17.1281C8.2136 16.9941 8.00231 16.8135 7.80937 16.5934C7.57071 16.5359 7.34542 16.4382 7.14012 16.2974C6.34092 15.7492 6.03787 14.683 6.23446 13.5166C6.11291 13.3625 6.04643 13.197 6.04643 13.0244C6.04643 12.8516 6.11291 12.6861 6.23446 12.5322C6.03787 11.3656 6.341 10.2995 7.1402 9.75128ZM9.68174 21.2871C9.53842 21.4607 9.38561 21.5602 9.38561 21.5602C9.38561 21.5602 9.23249 21.4607 9.08909 21.2871C9.0226 21.2474 8.96062 21.195 8.90307 21.1319C8.89926 21.1277 8.89529 21.1239 8.89156 21.1197C8.81665 21.1017 8.74564 21.0702 8.68198 21.0268C8.4315 20.855 8.33647 20.5208 8.39814 20.1554C8.36003 20.1071 8.33927 20.0553 8.33927 20.0011C8.33927 19.9469 8.36003 19.8953 8.39814 19.8468C8.33647 19.4816 8.4315 19.1476 8.68198 18.9756C8.7456 18.9321 8.81662 18.9006 8.89156 18.8827C8.95222 18.8138 9.01824 18.7574 9.08909 18.7153C9.23249 18.5416 9.38537 18.4422 9.38537 18.4422C9.38537 18.4422 9.53842 18.5415 9.68174 18.7153C9.75266 18.7574 9.81884 18.8139 9.87942 18.8827C9.9544 18.9006 10.0255 18.9321 10.0891 18.9756C10.3396 19.1476 10.4345 19.4816 10.3729 19.8468C10.411 19.8953 10.4319 19.9469 10.4319 20.0011C10.4319 20.0553 10.411 20.1071 10.3729 20.1554C10.4345 20.5208 10.3395 20.855 10.0891 21.0268C10.0254 21.0702 9.95436 21.1017 9.87942 21.1197C9.87569 21.124 9.87172 21.1278 9.86791 21.1319C9.81036 21.1951 9.74823 21.2475 9.68174 21.2871Z" fill="#A44AFF"/>
<path d="M18.9431 2.01659e-09H2.4227C2.35627 -6.5892e-06 2.29084 0.0161445 2.23204 0.0470605C2.17324 0.0779766 2.12285 0.12273 2.0852 0.177462L0.719475 2.16204C0.664846 2.2417 0.640138 2.33811 0.649719 2.43422C0.649253 2.44239 0.647308 2.45017 0.647308 2.45849V23.5904C0.647308 23.6991 0.690478 23.8033 0.767321 23.8801C0.844163 23.957 0.948384 24.0002 1.05706 24.0002H17.7139C17.7678 24.0002 17.821 23.9896 17.8708 23.969C17.9205 23.9484 17.9657 23.9182 18.0037 23.8802C18.0418 23.8421 18.0719 23.7969 18.0925 23.7472C18.1131 23.6975 18.1237 23.6442 18.1237 23.5904V21.9515H18.9432C18.997 21.9515 19.0503 21.9409 19.1 21.9203C19.1497 21.8997 19.1949 21.8696 19.2329 21.8315C19.271 21.7935 19.3012 21.7483 19.3217 21.6986C19.3423 21.6489 19.3529 21.5956 19.3529 21.5418V0.409748C19.3529 0.301075 19.3097 0.196866 19.2329 0.12003C19.156 0.0431945 19.0518 2.06113e-05 18.9431 2.01659e-09ZM15.88 20.1085C15.88 20.1702 15.8613 20.2304 15.8263 20.2812C15.7914 20.332 15.7418 20.371 15.6842 20.393C15.2918 20.5428 14.969 20.8036 14.7445 21.1319C14.5769 21.3775 14.4664 21.6575 14.4212 21.9513C14.406 22.0487 14.398 22.1471 14.397 22.2456C14.3963 22.3259 14.3639 22.4027 14.3069 22.4593C14.2498 22.5158 14.1728 22.5476 14.0925 22.5476H4.67838C4.59805 22.5476 4.52098 22.5158 4.46394 22.4593C4.40691 22.4027 4.37452 22.3259 4.37385 22.2456C4.37291 22.1471 4.36486 22.0487 4.34974 21.9513C4.30464 21.6574 4.19414 21.3774 4.02639 21.1319C3.80196 20.8036 3.47915 20.5428 3.08674 20.393C3.02912 20.371 2.97954 20.332 2.94455 20.2812C2.90957 20.2304 2.89085 20.1702 2.89085 20.1085V5.94022C2.89084 5.87855 2.90956 5.81833 2.94452 5.76753C2.97949 5.71674 3.02906 5.67776 3.08667 5.65575C3.8616 5.35962 4.36685 4.63235 4.37385 3.80298C4.37452 3.72266 4.40691 3.64586 4.46394 3.5893C4.52098 3.53274 4.59805 3.50101 4.67838 3.50102H14.0925C14.1728 3.50101 14.2498 3.53273 14.3069 3.58927C14.3639 3.64581 14.3963 3.7226 14.397 3.8029C14.4041 4.63243 14.9093 5.3597 15.6842 5.65575C15.7418 5.67775 15.7914 5.71673 15.8263 5.76752C15.8613 5.81832 15.88 5.87855 15.88 5.94022V20.1085ZM18.5334 21.1319H18.1236V2.45833C18.1236 2.40452 18.113 2.35123 18.0924 2.30152C18.0719 2.2518 18.0417 2.20662 18.0036 2.16857C17.9656 2.13052 17.9204 2.10034 17.8707 2.07975C17.821 2.05917 17.7677 2.04857 17.7139 2.04858H3.01878L3.86471 0.81934H18.5334V21.1319Z" fill="#A44AFF"/>
</svg>
