<svg width="18" height="24" viewBox="0 0 18 24" fill="none" xmlns="http://www.w3.org/2000/svg">
<path d="M15.8224 13.6282C14.5212 11.5308 12.6611 10.528 11.1665 9.72208C10.689 9.46466 10.2631 9.23475 9.91939 9.00283C10.0119 8.8487 10.0608 8.67237 10.061 8.49263C10.061 8.25339 9.97316 8.02189 9.81608 7.83856C10.3375 7.5553 10.6671 7.01904 10.6671 6.43504C10.6671 5.85103 10.3375 5.31471 9.81615 5.03118C9.97323 4.84798 10.061 4.61634 10.061 4.37662C10.061 4.00746 9.85934 3.67223 9.53096 3.4889L9.10285 0.0906688C9.0996 0.0656835 9.08736 0.0427367 9.06843 0.0261134C9.04949 0.0094902 9.02516 0.000327236 8.99996 0.000335699C8.97476 0.000344163 8.95043 0.00952347 8.93151 0.0261594C8.91259 0.0427954 8.90036 0.0657505 8.89713 0.0907379L8.46889 3.48896C8.14064 3.6723 7.93899 4.00753 7.93899 4.37668C7.93899 4.61655 8.02676 4.84819 8.18355 5.03124C7.66216 5.31471 7.33267 5.8511 7.33267 6.43511C7.33267 7.01918 7.66223 7.55537 8.18362 7.83863C8.02669 8.02182 7.93899 8.25325 7.93899 8.4927C7.93899 8.67846 7.99103 8.85239 8.08059 9.0029C7.73693 9.23482 7.31097 9.46473 6.83352 9.72215C5.33886 10.528 3.47877 11.5309 2.1776 13.6283C0.6367 16.1121 0.280465 19.4954 1.08844 23.9717L1.09355 24.0001H16.9064L16.9115 23.9717C17.7195 19.4954 17.3633 16.112 15.8224 13.6282ZM6.24524 13.8219C6.58817 13.4783 6.98847 13.1972 7.4281 12.9914C6.70575 14.5369 6.98258 16.4337 8.2586 17.7096C9.53462 18.9858 11.4313 19.2625 12.9769 18.5401C12.7712 18.9799 12.4901 19.3803 12.1464 19.7231C10.5169 21.3528 7.87472 21.3528 6.24517 19.7231C4.61561 18.0936 4.61561 15.4515 6.24524 13.8219ZM9.12649 14.9326C9.76301 15.5689 10.3994 15.5689 11.0358 14.9326C10.3994 15.5689 10.3994 16.2054 11.0358 16.8419C10.3994 16.2054 9.76301 16.2054 9.12649 16.8419C9.76294 16.2054 9.76294 15.5689 9.12649 14.9326Z" fill="#A44AFF"/>
</svg>
