<svg width="292" height="179" viewBox="0 0 292 179" fill="none" xmlns="http://www.w3.org/2000/svg">
<path opacity="0.25" d="M145.9 178.8C215.433 178.8 271.8 165.682 271.8 149.5C271.8 133.318 215.433 120.2 145.9 120.2C76.3674 120.2 20 133.318 20 149.5C20 165.682 76.3674 178.8 145.9 178.8Z" fill="#042030"/>
<path d="M244.5 8.10001L145.9 41.8L47.2 8.10001L0 76.7L145.9 126.6L291.7 76.7L244.5 8.10001Z" fill="#4E2999"/>
<path opacity="0.45" d="M17.2 73.9L138.2 120.2L96.6 79C96.6 79 28.3 62.5 17.2 73.9Z" fill="#240F4F"/>
<path opacity="0.45" d="M274.6 73.9L153.6 120.2L195.2 79C195.1 79 263.4 62.5 274.6 73.9Z" fill="#240F4F"/>
<path d="M145.9 126.6L0 76.7V83.2L145.9 133.1L291.7 83.2V76.7L145.9 126.6Z" fill="#994EF8"/>
<path d="M68.2 156.6L85.1 112.3L139.5 130.9L68.2 156.6Z" fill="#3B1E77"/>
<path opacity="0.45" d="M72.9 143.8L139.5 130.9L85.1 112.3L72.9 143.8Z" fill="#3B1E77"/>
<path d="M145.9 128.6L68.2 156.6L74 162.7L145.9 137.1L217.7 162.7L223.6 156.6L145.9 128.6Z" fill="#994EF8"/>
<path d="M223.6 156.6L206.6 112.3L152.2 130.9L223.6 156.6Z" fill="#3B1E77"/>
<path opacity="0.45" d="M218.8 143.8L152.2 130.9L206.6 112.3L218.8 143.8Z" fill="#3B1E77"/>
<path d="M145.9 137.1C148.827 137.1 151.2 134.727 151.2 131.8C151.2 128.873 148.827 126.5 145.9 126.5C142.973 126.5 140.6 128.873 140.6 131.8C140.6 134.727 142.973 137.1 145.9 137.1Z" fill="white" fill-opacity="0.5"/>
<path d="M240.3 8.10001L145.9 55.1L51.5 8.10001C47.2 13.8 12.6 71.5 12.6 71.5C13 71.5 13.3 71.6 13.7 71.6C100.5 80.3 124.6 107.6 132.6 114.2C140.6 120.9 146 120.2 146 120.2C146 120.2 151.4 120.9 159.4 114.2C167.4 107.6 191.5 80.3 278.3 71.6C278.7 71.6 279 71.5 279.4 71.5C279.2 71.5 244.5 13.9 240.3 8.10001Z" fill="#F5B304"/>
<path d="M279.2 71.5C278.8 71.5 278.5 71.6 278.1 71.6C191.3 80.3 167.2 107.6 159.2 114.2C151.2 120.9 145.8 120.2 145.8 120.2C145.8 120.2 140.4 120.9 132.4 114.2C124.4 107.6 100.3 80.3 13.5 71.6C13.1 71.6 12.8 71.5 12.4 71.5C11.7 72.6 12.4 73.4 12.4 73.4C100.1 81.9 123.4 109.3 131.4 116C139.4 122.6 145.7 122.1 145.7 122.1C145.7 122.1 152 122.6 160 116C168 109.4 191.3 82 279 73.4C279.2 73.4 279.9 72.6 279.2 71.5Z" fill="#994EF8"/>
<path d="M236.7 2.6C188.4 -9 145.8 30.7 145.8 30.7C145.8 30.7 103.2 -9 54.9 2.6C54.9 2.6 41.2 23.6 22.3 59.3C22.3 59.3 117.4 70 145.8 109.9C174.2 70 269.3 59.3 269.3 59.3C250.4 23.6 236.7 2.6 236.7 2.6Z" fill="#F5EFFB"/>
<path d="M269.3 59.3C269.3 59.3 174.2 70 145.8 109.9C117.5 70 22.4 59.3 22.4 59.3C22.4 59.3 22.4 62.5 17.1 68.8C17.1 68.8 103.4 75 134.8 110.8C142.2 119.2 145.8 118.2 145.8 118.2C145.8 118.2 149.5 119.2 156.8 110.8C188.1 75 274.5 68.8 274.5 68.8C269.3 62.4 269.3 59.3 269.3 59.3Z" fill="#DFCBF4"/>
<path d="M231.3 6.8C231.3 6.8 195.2 -2.40001 145.8 35.9C96.5 -2.30001 60.3 6.8 60.3 6.8L35.9 54.2C110.1 59.3 145.8 96.8 145.8 96.8C145.8 96.8 181.5 59.3 255.7 54.2L231.3 6.8ZM145.9 92.3C145.9 92.3 112.5 58.1 41.7 51.4L62.2 8.8C62.2 8.8 97.7 1.9 145.9 38.1C194.1 1.9 229.6 8.8 229.6 8.8L250.1 51.4C179.3 58.1 145.9 92.3 145.9 92.3Z" fill="#863ED5"/>
<path opacity="0.2" d="M155 71.5938C168.333 61.7605 210 40 238 43" stroke="#863ED5" stroke-width="3" stroke-linecap="round"/>
<path opacity="0.2" d="M155 44C166.833 34.7346 197.6 16.5808 226 18.0884" stroke="#863ED5" stroke-width="3" stroke-linecap="round"/>
<path opacity="0.2" d="M155 58C167.833 48.0219 201.2 28.4716 232 30.0952" stroke="#863ED5" stroke-width="3" stroke-linecap="round"/>
<path opacity="0.2" d="M138 71.5938C124.667 61.7605 83 40 55 43" stroke="#863ED5" stroke-width="3" stroke-linecap="round"/>
<path opacity="0.2" d="M138 44C126.167 34.7346 95.4 16.5808 67 18.0884" stroke="#863ED5" stroke-width="3" stroke-linecap="round"/>
<path opacity="0.2" d="M138 58C125.167 48.0219 91.8 28.4716 61 30.0952" stroke="#863ED5" stroke-width="3" stroke-linecap="round"/>
<path d="M145.9 30.7C145.9 30.7 146.9 27.2 148.8 28.2C148.8 28.2 147.6 84.9 149.6 107C150.1 112.5 154.9 120 156.8 122.8H154.3L153.6 125.1C153.6 125.1 146.2 112.6 145.9 107.7C144.4 85.7 145.2 36 145.9 30.7Z" fill="#54DAF5"/>
</svg>
